<svg xmlns="http://www.w3.org/2000/svg" xmlns:xlink="http://www.w3.org/1999/xlink" contentStyleType="text/css" height="1409px" preserveAspectRatio="none" style="width:969px;height:1409px;background:#FFFFFF;" version="1.1" viewBox="0 0 969 1409" width="969px" zoomAndPan="magnify"><title>Dictaphone Recording and Transcription</title><defs/><g><text fill="#000000" font-family="sans-serif" font-size="14" font-weight="bold" lengthAdjust="spacing" textLength="319.1904" x="330.7737" y="27.9951">Dictaphone Recording and Transcription</text><rect fill="#ADD8E6" height="1127.4453" style="stroke:#181818;stroke-width:0.5;" width="220.811" x="254.0186" y="43.2969"/><text fill="#000000" font-family="sans-serif" font-size="13" font-weight="bold" lengthAdjust="spacing" textLength="214.811" x="257.0186" y="55.3638">Web App in UCloud container</text><rect fill="#90EE90" height="1127.4453" style="stroke:#181818;stroke-width:0.5;" width="336.6221" x="627.3633" y="43.2969"/><text fill="#000000" font-family="sans-serif" font-size="13" font-weight="bold" lengthAdjust="spacing" textLength="262.0693" x="664.6396" y="55.3638">Secure storage in UCloud Container</text><rect fill="#FFFFFF" height="845.3203" style="stroke:#181818;stroke-width:1.0;" width="10" x="359.4241" y="237.125"/><rect fill="#FFFFFF" height="816.1875" style="stroke:#181818;stroke-width:1.0;" width="10" x="683.3306" y="266.2578"/><rect fill="#FFFFFF" height="71.2656" style="stroke:#181818;stroke-width:1.0;" width="10" x="874.1196" y="973.0469"/><rect fill="none" height="217.9297" style="stroke:#000000;stroke-width:1.5;" width="552.1824" x="293.5911" y="394.6563"/><rect fill="none" height="117.5313" style="stroke:#000000;stroke-width:1.5;" width="578.2585" x="293.5911" y="756.1172"/><line style="stroke:#181818;stroke-width:0.5;stroke-dasharray:5.0,5.0;" x1="23" x2="23" y1="118.5938" y2="1091.4453"/><line style="stroke:#181818;stroke-width:0.5;stroke-dasharray:5.0,5.0;" x1="193.5015" x2="193.5015" y1="118.5938" y2="1091.4453"/><line style="stroke:#181818;stroke-width:0.5;stroke-dasharray:5.0,5.0;" x1="363.5911" x2="363.5911" y1="118.5938" y2="1091.4453"/><line style="stroke:#181818;stroke-width:0.5;stroke-dasharray:5.0,5.0;" x1="687.3633" x2="687.3633" y1="118.5938" y2="1091.4453"/><line style="stroke:#181818;stroke-width:0.5;stroke-dasharray:5.0,5.0;" x1="878.2539" x2="878.2539" y1="118.5938" y2="1091.4453"/><text fill="#000000" font-family="sans-serif" font-size="14" lengthAdjust="spacing" textLength="31.9102" x="5" y="115.292">User</text><ellipse cx="23.9551" cy="50.7969" fill="#E2E2F0" rx="8" ry="8" style="stroke:#181818;stroke-width:0.5;"/><path d="M23.9551,58.7969 L23.9551,85.7969 M10.9551,66.7969 L36.9551,66.7969 M23.9551,85.7969 L10.9551,100.7969 M23.9551,85.7969 L36.9551,100.7969 " fill="none" style="stroke:#181818;stroke-width:0.5;"/><text fill="#000000" font-family="sans-serif" font-size="14" lengthAdjust="spacing" textLength="31.9102" x="5" y="1103.4404">User</text><ellipse cx="23.9551" cy="1115.2422" fill="#E2E2F0" rx="8" ry="8" style="stroke:#181818;stroke-width:0.5;"/><path d="M23.9551,1123.2422 L23.9551,1150.2422 M10.9551,1131.2422 L36.9551,1131.2422 M23.9551,1150.2422 L10.9551,1165.2422 M23.9551,1150.2422 L36.9551,1165.2422 " fill="none" style="stroke:#181818;stroke-width:0.5;"/><rect fill="#E2E2F0" height="30.2969" rx="2.5" ry="2.5" style="stroke:#181818;stroke-width:0.5;" width="71.0391" x="158.5015" y="87.2969"/><text fill="#000000" font-family="sans-serif" font-size="14" lengthAdjust="spacing" textLength="57.0391" x="165.5015" y="107.292">Browser</text><rect fill="#E2E2F0" height="30.2969" rx="2.5" ry="2.5" style="stroke:#181818;stroke-width:0.5;" width="71.0391" x="158.5015" y="1090.4453"/><text fill="#000000" font-family="sans-serif" font-size="14" lengthAdjust="spacing" textLength="57.0391" x="165.5015" y="1110.4404">Browser</text><rect fill="#E2E2F0" height="30.2969" rx="2.5" ry="2.5" style="stroke:#181818;stroke-width:0.5;" width="121.666" x="303.5911" y="87.2969"/><text fill="#000000" font-family="sans-serif" font-size="14" lengthAdjust="spacing" textLength="107.666" x="310.5911" y="107.292">React Frontend</text><rect fill="#E2E2F0" height="30.2969" rx="2.5" ry="2.5" style="stroke:#181818;stroke-width:0.5;" width="121.666" x="303.5911" y="1090.4453"/><text fill="#000000" font-family="sans-serif" font-size="14" lengthAdjust="spacing" textLength="107.666" x="310.5911" y="1110.4404">React Frontend</text><rect fill="#E2E2F0" height="30.2969" rx="2.5" ry="2.5" style="stroke:#181818;stroke-width:0.5;" width="113.9346" x="631.3633" y="87.2969"/><text fill="#000000" font-family="sans-serif" font-size="14" lengthAdjust="spacing" textLength="99.9346" x="638.3633" y="107.292">Django Server</text><rect fill="#E2E2F0" height="30.2969" rx="2.5" ry="2.5" style="stroke:#181818;stroke-width:0.5;" width="113.9346" x="631.3633" y="1090.4453"/><text fill="#000000" font-family="sans-serif" font-size="14" lengthAdjust="spacing" textLength="99.9346" x="638.3633" y="1110.4404">Django Server</text><rect fill="#E2E2F0" height="30.2969" rx="2.5" ry="2.5" style="stroke:#181818;stroke-width:0.5;" width="161.7314" x="798.2539" y="87.2969"/><text fill="#000000" font-family="sans-serif" font-size="14" lengthAdjust="spacing" textLength="147.7314" x="805.2539" y="107.292">Celery Task Manager</text><rect fill="#E2E2F0" height="30.2969" rx="2.5" ry="2.5" style="stroke:#181818;stroke-width:0.5;" width="161.7314" x="798.2539" y="1090.4453"/><text fill="#000000" font-family="sans-serif" font-size="14" lengthAdjust="spacing" textLength="147.7314" x="805.2539" y="1110.4404">Celery Task Manager</text><rect fill="#FFFFFF" height="845.3203" style="stroke:#181818;stroke-width:1.0;" width="10" x="359.4241" y="237.125"/><rect fill="#FFFFFF" height="816.1875" style="stroke:#181818;stroke-width:1.0;" width="10" x="683.3306" y="266.2578"/><rect fill="#FFFFFF" height="71.2656" style="stroke:#181818;stroke-width:1.0;" width="10" x="874.1196" y="973.0469"/><polygon fill="#181818" points="182.021,145.7266,192.021,149.7266,182.021,153.7266,186.021,149.7266" style="stroke:#181818;stroke-width:1.0;"/><line style="stroke:#181818;stroke-width:1.0;" x1="23.9551" x2="188.021" y1="149.7266" y2="149.7266"/><text fill="#000000" font-family="sans-serif" font-size="13" lengthAdjust="spacing" textLength="98.0332" x="30.9551" y="144.6606">Start recording</text><polygon fill="#181818" points="34.9551,174.8594,24.9551,178.8594,34.9551,182.8594,30.9551,178.8594" style="stroke:#181818;stroke-width:1.0;"/><line style="stroke:#181818;stroke-width:1.0;" x1="28.9551" x2="193.021" y1="178.8594" y2="178.8594"/><text fill="#000000" font-family="sans-serif" font-size="13" lengthAdjust="spacing" textLength="146.0659" x="40.9551" y="173.7935">Request access to mic</text><polygon fill="#181818" points="182.021,203.9922,192.021,207.9922,182.021,211.9922,186.021,207.9922" style="stroke:#181818;stroke-width:1.0;"/><line style="stroke:#181818;stroke-width:1.0;" x1="23.9551" x2="188.021" y1="207.9922" y2="207.9922"/><text fill="#000000" font-family="sans-serif" font-size="13" lengthAdjust="spacing" textLength="129.397" x="30.9551" y="202.9263">Grant access to mic</text><polygon fill="#181818" points="347.4241,233.125,357.4241,237.125,347.4241,241.125,351.4241,237.125" style="stroke:#181818;stroke-width:1.0;"/><line style="stroke:#181818;stroke-width:1.0;" x1="194.021" x2="353.4241" y1="237.125" y2="237.125"/><text fill="#000000" font-family="sans-serif" font-size="13" lengthAdjust="spacing" textLength="98.0332" x="201.021" y="232.0591">Start recording</text><polygon fill="#181818" points="671.3306,262.2578,681.3306,266.2578,671.3306,270.2578,675.3306,266.2578" style="stroke:#181818;stroke-width:1.0;"/><line style="stroke:#181818;stroke-width:1.0;" x1="369.4241" x2="677.3306" y1="266.2578" y2="266.2578"/><text fill="#000000" font-family="sans-serif" font-size="13" lengthAdjust="spacing" textLength="98.0332" x="376.4241" y="261.1919">Start recording</text><line style="stroke:#181818;stroke-width:1.0;" x1="693.3306" x2="735.3306" y1="295.3906" y2="295.3906"/><line style="stroke:#181818;stroke-width:1.0;" x1="735.3306" x2="735.3306" y1="295.3906" y2="308.3906"/><line style="stroke:#181818;stroke-width:1.0;" x1="694.3306" x2="735.3306" y1="308.3906" y2="308.3906"/><polygon fill="#181818" points="704.3306,304.3906,694.3306,308.3906,704.3306,312.3906,700.3306,308.3906" style="stroke:#181818;stroke-width:1.0;"/><text fill="#000000" font-family="sans-serif" font-size="13" lengthAdjust="spacing" textLength="139.6294" x="700.3306" y="290.3247">Prepare data transfer</text><polygon fill="#181818" points="380.4241,333.5234,370.4241,337.5234,380.4241,341.5234,376.4241,337.5234" style="stroke:#181818;stroke-width:1.0;"/><line style="stroke:#181818;stroke-width:1.0;" x1="374.4241" x2="682.3306" y1="337.5234" y2="337.5234"/><text fill="#000000" font-family="sans-serif" font-size="13" lengthAdjust="spacing" textLength="151.709" x="386.4241" y="332.4575">Ack. [RecID, SessionID]</text><line style="stroke:#181818;stroke-width:1.0;" x1="369.4241" x2="411.4241" y1="366.6563" y2="366.6563"/><line style="stroke:#181818;stroke-width:1.0;" x1="411.4241" x2="411.4241" y1="366.6563" y2="379.6563"/><line style="stroke:#181818;stroke-width:1.0;" x1="370.4241" x2="411.4241" y1="379.6563" y2="379.6563"/><polygon fill="#181818" points="380.4241,375.6563,370.4241,379.6563,380.4241,383.6563,376.4241,379.6563" style="stroke:#181818;stroke-width:1.0;"/><text fill="#000000" font-family="sans-serif" font-size="13" lengthAdjust="spacing" textLength="172.2817" x="376.4241" y="361.5903">Update UI state: recording</text><path d="M293.5911,394.6563 L370.2151,394.6563 L370.2151,401.7891 L360.2151,411.7891 L293.5911,411.7891 L293.5911,394.6563 " fill="#EEEEEE" style="stroke:#000000;stroke-width:1.5;"/><rect fill="none" height="217.9297" style="stroke:#000000;stroke-width:1.5;" width="552.1824" x="293.5911" y="394.6563"/><text fill="#000000" font-family="sans-serif" font-size="13" font-weight="bold" lengthAdjust="spacing" textLength="31.624" x="308.5911" y="407.7231">loop</text><polygon fill="#181818" points="671.3306,428.9219,681.3306,432.9219,671.3306,436.9219,675.3306,432.9219" style="stroke:#181818;stroke-width:1.0;"/><line style="stroke:#181818;stroke-width:1.0;" x1="369.4241" x2="677.3306" y1="432.9219" y2="432.9219"/><text fill="#000000" font-family="sans-serif" font-size="13" lengthAdjust="spacing" textLength="244.334" x="376.4241" y="427.856">Send chunk [RecID, SessionID, index]</text><line style="stroke:#181818;stroke-width:1.0;" x1="693.3306" x2="735.3306" y1="462.0547" y2="462.0547"/><line style="stroke:#181818;stroke-width:1.0;" x1="735.3306" x2="735.3306" y1="462.0547" y2="475.0547"/><line style="stroke:#181818;stroke-width:1.0;" x1="694.3306" x2="735.3306" y1="475.0547" y2="475.0547"/><polygon fill="#181818" points="704.3306,471.0547,694.3306,475.0547,704.3306,479.0547,700.3306,475.0547" style="stroke:#181818;stroke-width:1.0;"/><text fill="#000000" font-family="sans-serif" font-size="13" lengthAdjust="spacing" textLength="123.4429" x="700.3306" y="456.9888">Check chunk index</text><polygon fill="#181818" points="380.4241,500.1875,370.4241,504.1875,380.4241,508.1875,376.4241,504.1875" style="stroke:#181818;stroke-width:1.0;"/><line style="stroke:#181818;stroke-width:1.0;" x1="374.4241" x2="682.3306" y1="504.1875" y2="504.1875"/><text fill="#000000" font-family="sans-serif" font-size="13" lengthAdjust="spacing" textLength="190.2075" x="386.4241" y="499.1216">Acknowledge chunk received</text><line style="stroke:#181818;stroke-width:1.0;" x1="369.4241" x2="411.4241" y1="533.3203" y2="533.3203"/><line style="stroke:#181818;stroke-width:1.0;" x1="411.4241" x2="411.4241" y1="533.3203" y2="546.3203"/><line style="stroke:#181818;stroke-width:1.0;" x1="370.4241" x2="411.4241" y1="546.3203" y2="546.3203"/><polygon fill="#181818" points="380.4241,542.3203,370.4241,546.3203,380.4241,550.3203,376.4241,546.3203" style="stroke:#181818;stroke-width:1.0;"/><text fill="#000000" font-family="sans-serif" font-size="13" lengthAdjust="spacing" textLength="171.812" x="376.4241" y="528.2544">Delete chunk data on Ack.</text><polygon fill="#181818" points="380.4241,571.4531,370.4241,575.4531,380.4241,579.4531,376.4241,575.4531" style="stroke:#181818;stroke-width:1.0;"/><line style="stroke:#181818;stroke-width:1.0;stroke-dasharray:2.0,2.0;" x1="374.4241" x2="682.3306" y1="575.4531" y2="575.4531"/><text fill="#000000" font-family="sans-serif" font-size="13" lengthAdjust="spacing" textLength="243.5024" x="386.4241" y="570.3872">Request missing chunk (if necessary)</text><polygon fill="#181818" points="671.3306,600.5859,681.3306,604.5859,671.3306,608.5859,675.3306,604.5859" style="stroke:#181818;stroke-width:1.0;"/><line style="stroke:#181818;stroke-width:1.0;stroke-dasharray:2.0,2.0;" x1="369.4241" x2="677.3306" y1="604.5859" y2="604.5859"/><text fill="#000000" font-family="sans-serif" font-size="13" lengthAdjust="spacing" textLength="243.0962" x="376.4241" y="599.52">Re-send missing chunk (if necessary)</text><polygon fill="#181818" points="182.021,636.7188,192.021,640.7188,182.021,644.7188,186.021,640.7188" style="stroke:#181818;stroke-width:1.0;"/><line style="stroke:#181818;stroke-width:1.0;" x1="23.9551" x2="188.021" y1="640.7188" y2="640.7188"/><text fill="#000000" font-family="sans-serif" font-size="13" lengthAdjust="spacing" textLength="95.8306" x="30.9551" y="635.6528">Stop recording</text><polygon fill="#181818" points="347.4241,665.8516,357.4241,669.8516,347.4241,673.8516,351.4241,669.8516" style="stroke:#181818;stroke-width:1.0;"/><line style="stroke:#181818;stroke-width:1.0;" x1="194.021" x2="353.4241" y1="669.8516" y2="669.8516"/><text fill="#000000" font-family="sans-serif" font-size="13" lengthAdjust="spacing" textLength="95.8306" x="201.021" y="664.7856">Stop recording</text><polygon fill="#181818" points="671.3306,694.9844,681.3306,698.9844,671.3306,702.9844,675.3306,698.9844" style="stroke:#181818;stroke-width:1.0;"/><line style="stroke:#181818;stroke-width:1.0;" x1="369.4241" x2="677.3306" y1="698.9844" y2="698.9844"/><text fill="#000000" font-family="sans-serif" font-size="13" lengthAdjust="spacing" textLength="95.8306" x="376.4241" y="693.9185">Stop recording</text><line style="stroke:#181818;stroke-width:1.0;" x1="369.4241" x2="411.4241" y1="728.1172" y2="728.1172"/><line style="stroke:#181818;stroke-width:1.0;" x1="411.4241" x2="411.4241" y1="728.1172" y2="741.1172"/><line style="stroke:#181818;stroke-width:1.0;" x1="370.4241" x2="411.4241" y1="741.1172" y2="741.1172"/><polygon fill="#181818" points="380.4241,737.1172,370.4241,741.1172,380.4241,745.1172,376.4241,741.1172" style="stroke:#181818;stroke-width:1.0;"/><text fill="#000000" font-family="sans-serif" font-size="13" lengthAdjust="spacing" textLength="201.7729" x="376.4241" y="723.0513">Update UI state: Verifying data</text><path d="M293.5911,756.1172 L370.2151,756.1172 L370.2151,763.25 L360.2151,773.25 L293.5911,773.25 L293.5911,756.1172 " fill="#EEEEEE" style="stroke:#000000;stroke-width:1.5;"/><rect fill="none" height="117.5313" style="stroke:#000000;stroke-width:1.5;" width="578.2585" x="293.5911" y="756.1172"/><text fill="#000000" font-family="sans-serif" font-size="13" font-weight="bold" lengthAdjust="spacing" textLength="31.624" x="308.5911" y="769.1841">loop</text><line style="stroke:#181818;stroke-width:1.0;" x1="693.3306" x2="735.3306" y1="794.3828" y2="794.3828"/><line style="stroke:#181818;stroke-width:1.0;" x1="735.3306" x2="735.3306" y1="794.3828" y2="807.3828"/><line style="stroke:#181818;stroke-width:1.0;" x1="694.3306" x2="735.3306" y1="807.3828" y2="807.3828"/><polygon fill="#181818" points="704.3306,803.3828,694.3306,807.3828,704.3306,811.3828,700.3306,807.3828" style="stroke:#181818;stroke-width:1.0;"/><text fill="#000000" font-family="sans-serif" font-size="13" lengthAdjust="spacing" textLength="149.519" x="700.3306" y="789.3169">Check chunk inventory</text><polygon fill="#181818" points="380.4241,832.5156,370.4241,836.5156,380.4241,840.5156,376.4241,836.5156" style="stroke:#181818;stroke-width:1.0;"/><line style="stroke:#181818;stroke-width:1.0;stroke-dasharray:2.0,2.0;" x1="374.4241" x2="682.3306" y1="836.5156" y2="836.5156"/><text fill="#000000" font-family="sans-serif" font-size="13" lengthAdjust="spacing" textLength="243.5024" x="386.4241" y="831.4497">Request missing chunk (if necessary)</text><polygon fill="#181818" points="671.3306,861.6484,681.3306,865.6484,671.3306,869.6484,675.3306,865.6484" style="stroke:#181818;stroke-width:1.0;"/><line style="stroke:#181818;stroke-width:1.0;stroke-dasharray:2.0,2.0;" x1="369.4241" x2="677.3306" y1="865.6484" y2="865.6484"/><text fill="#000000" font-family="sans-serif" font-size="13" lengthAdjust="spacing" textLength="243.0962" x="376.4241" y="860.5825">Re-send missing chunk (if necessary)</text><polygon fill="#181818" points="380.4241,897.7813,370.4241,901.7813,380.4241,905.7813,376.4241,901.7813" style="stroke:#181818;stroke-width:1.0;"/><line style="stroke:#181818;stroke-width:1.0;" x1="374.4241" x2="682.3306" y1="901.7813" y2="901.7813"/><text fill="#000000" font-family="sans-serif" font-size="13" lengthAdjust="spacing" textLength="118.1489" x="386.4241" y="896.7153">Data size and ETA</text><line style="stroke:#181818;stroke-width:1.0;" x1="369.4241" x2="411.4241" y1="930.9141" y2="930.9141"/><line style="stroke:#181818;stroke-width:1.0;" x1="411.4241" x2="411.4241" y1="930.9141" y2="943.9141"/><line style="stroke:#181818;stroke-width:1.0;" x1="370.4241" x2="411.4241" y1="943.9141" y2="943.9141"/><polygon fill="#181818" points="380.4241,939.9141,370.4241,943.9141,380.4241,947.9141,376.4241,943.9141" style="stroke:#181818;stroke-width:1.0;"/><text fill="#000000" font-family="sans-serif" font-size="13" lengthAdjust="spacing" textLength="194.5938" x="376.4241" y="925.8481">Update UI state: Size and ETA</text><polygon fill="#181818" points="862.1196,969.0469,872.1196,973.0469,862.1196,977.0469,866.1196,973.0469" style="stroke:#181818;stroke-width:1.0;"/><line style="stroke:#181818;stroke-width:1.0;" x1="693.3306" x2="868.1196" y1="973.0469" y2="973.0469"/><text fill="#000000" font-family="sans-serif" font-size="13" lengthAdjust="spacing" textLength="161.7891" x="700.3306" y="967.981">Create transcription task</text><line style="stroke:#181818;stroke-width:1.0;" x1="884.1196" x2="926.1196" y1="1002.1797" y2="1002.1797"/><line style="stroke:#181818;stroke-width:1.0;" x1="926.1196" x2="926.1196" y1="1002.1797" y2="1015.1797"/><line style="stroke:#181818;stroke-width:1.0;" x1="885.1196" x2="926.1196" y1="1015.1797" y2="1015.1797"/><polygon fill="#181818" points="895.1196,1011.1797,885.1196,1015.1797,895.1196,1019.1797,891.1196,1015.1797" style="stroke:#181818;stroke-width:1.0;"/><text fill="#000000" font-family="sans-serif" font-size="13" lengthAdjust="spacing" textLength="68.6182" x="891.1196" y="997.1138">Transcribe</text><polygon fill="#181818" points="704.3306,1040.3125,694.3306,1044.3125,704.3306,1048.3125,700.3306,1044.3125" style="stroke:#181818;stroke-width:1.0;"/><line style="stroke:#181818;stroke-width:1.0;" x1="698.3306" x2="878.1196" y1="1044.3125" y2="1044.3125"/><text fill="#000000" font-family="sans-serif" font-size="13" lengthAdjust="spacing" textLength="75.8608" x="710.3306" y="1039.2466">Output files</text><polygon fill="#181818" points="380.4241,1069.4453,370.4241,1073.4453,380.4241,1077.4453,376.4241,1073.4453" style="stroke:#181818;stroke-width:1.0;"/><line style="stroke:#181818;stroke-width:1.0;" x1="374.4241" x2="682.3306" y1="1073.4453" y2="1073.4453"/><text fill="#000000" font-family="sans-serif" font-size="13" lengthAdjust="spacing" textLength="102.9844" x="386.4241" y="1068.3794">Output file links</text><rect fill="#DDDDDD" height="205.5625" id="_legend" rx="7.5" ry="7.5" style="stroke:#000000;stroke-width:1.0;" width="329.0127" x="325.8625" y="1183.7422"/><text fill="#000000" font-family="sans-serif" font-size="14" lengthAdjust="spacing" textLength="319.0127" x="330.8625" y="1201.7373">Django Server Implementation requirements:</text><text fill="#000000" font-family="sans-serif" font-size="14" lengthAdjust="spacing" textLength="4.4502" x="330.8625" y="1218.0342">&#160;</text><text fill="#000000" font-family="sans-serif" font-size="14" lengthAdjust="spacing" textLength="205.1123" x="330.8625" y="1234.3311">Recording data management</text><text fill="#000000" font-family="sans-serif" font-size="14" lengthAdjust="spacing" textLength="147.3691" x="335.3127" y="1250.6279">- handle data chunks</text><text fill="#000000" font-family="sans-serif" font-size="14" lengthAdjust="spacing" textLength="175.4102" x="335.3127" y="1266.9248">- request missing chunks</text><text fill="#000000" font-family="sans-serif" font-size="14" lengthAdjust="spacing" textLength="145.3252" x="335.3127" y="1283.2217">- assemble audio file</text><text fill="#000000" font-family="sans-serif" font-size="14" lengthAdjust="spacing" textLength="4.4502" x="330.8625" y="1299.5186">&#160;</text><text fill="#000000" font-family="sans-serif" font-size="14" lengthAdjust="spacing" textLength="74.8672" x="330.8625" y="1315.8154">Monitoring</text><text fill="#000000" font-family="sans-serif" font-size="14" lengthAdjust="spacing" textLength="189.1299" x="335.3127" y="1332.1123">- detect broken connection</text><text fill="#000000" font-family="sans-serif" font-size="14" lengthAdjust="spacing" textLength="4.4502" x="330.8625" y="1348.4092">&#160;</text><text fill="#000000" font-family="sans-serif" font-size="14" lengthAdjust="spacing" textLength="146.6992" x="330.8625" y="1364.7061">Transcription service</text><text fill="#000000" font-family="sans-serif" font-size="14" lengthAdjust="spacing" textLength="4.4502" x="330.8625" y="1381.0029">&#160;</text><!--SRC=[dLJ1Rjim3BthAuZkiW7jFY270Ocz505MRB3ZxJ3qeCXCejcMF4bEcttzIDb9x3KhiEKKc8_autiKWmurGgfLaEtU6eGCbNMbDZkGfeIrayOhfzkWhH5I1UkWyEX0UYX4ArtGIhVI1BXPEFj4aHiEBJAniSzmymqtC6zRq0QAfBPT2SgQ8BLXt9jFUhSFYxh3QQ4CgGyi7I7HbB5UjXJq5wXcNpT7rJa4JtJa3aVbap_Btpj4CwsV_f1cPo57TnZeflaKaM2DxWXhwIjua8PQzBZap4A80ku-q9mpo0EbWZl99XOPHuePAVcpGnz0AeNUGx3GQ7N9ktVSQnhiSxFboweaYJx8W2n5jcHKch-2eedI_8Jwuf36GoXba13OqIsw8Swzvgfw3z_9-5LwIx9uJrwlqiUX3oEAjkIgnOeafp-pKSlQsbO0_KQiM2MrxqprikejcLNYysDCkL1CzgYg8IS2Hl61eh5FDPRaTeyY1gWFM8vwCp0bwy894mUs9WvuBZW0J-uqcfZHjlSPR_KM3B8bqXtVdMiFB3EyyppRgpa462-7RL_iHk_l932sz4hWgWTVqUdjaNdmdBqHVrFqW8RUob7ygm3_C_p5jPJrz_eNnbloSJr_RPnyZEjh93I6GuQ5yHs2G0_pikk9I0RmwLfjiF_4j3zteUq2R7MDNfGuohhm766WrgRoGjIuwzzw2BOHavC1gwQjiI55PMJZI4ZjuWS_4-9oGEFwDV5-S5307Unfm7fuYL50pr_TDIjYH7gFpOOoP5Tg6naAyM2D9ZTvFGXIqhxJlTmuMw7X-qfsn6ij9iSRw3OVjA9qP0eytMy0]--></g></svg>