<svg xmlns="http://www.w3.org/2000/svg" xmlns:xlink="http://www.w3.org/1999/xlink" contentStyleType="text/css" height="1438px" preserveAspectRatio="none" style="width:969px;height:1438px;background:#FFFFFF;" version="1.1" viewBox="0 0 969 1438" width="969px" zoomAndPan="magnify"><title>Dictaphone Recording and Transcription</title><defs/><g><text fill="#000000" font-family="sans-serif" font-size="14" font-weight="bold" lengthAdjust="spacing" textLength="319.1904" x="330.7737" y="27.9951">Dictaphone Recording and Transcription</text><rect fill="#ADD8E6" height="1156.5781" style="stroke:#181818;stroke-width:0.5;" width="220.811" x="254.0186" y="43.2969"/><text fill="#000000" font-family="sans-serif" font-size="13" font-weight="bold" lengthAdjust="spacing" textLength="214.811" x="257.0186" y="55.3638">Web App in UCloud container</text><rect fill="#90EE90" height="1156.5781" style="stroke:#181818;stroke-width:0.5;" width="336.6221" x="627.3633" y="43.2969"/><text fill="#000000" font-family="sans-serif" font-size="13" font-weight="bold" lengthAdjust="spacing" textLength="262.0693" x="664.6396" y="55.3638">Secure storage in UCloud Container</text><rect fill="#FFFFFF" height="874.4531" style="stroke:#181818;stroke-width:1.0;" width="10" x="359.4241" y="237.125"/><rect fill="#FFFFFF" height="845.3203" style="stroke:#181818;stroke-width:1.0;" width="10" x="683.3306" y="266.2578"/><rect fill="#FFFFFF" height="71.2656" style="stroke:#181818;stroke-width:1.0;" width="10" x="874.1196" y="1002.1797"/><rect fill="none" height="217.9297" style="stroke:#000000;stroke-width:1.5;" width="552.1824" x="293.5911" y="394.6563"/><rect fill="none" height="117.5313" style="stroke:#000000;stroke-width:1.5;" width="578.2585" x="293.5911" y="785.25"/><line style="stroke:#181818;stroke-width:0.5;stroke-dasharray:5.0,5.0;" x1="23" x2="23" y1="118.5938" y2="1120.5781"/><line style="stroke:#181818;stroke-width:0.5;stroke-dasharray:5.0,5.0;" x1="193.5015" x2="193.5015" y1="118.5938" y2="1120.5781"/><line style="stroke:#181818;stroke-width:0.5;stroke-dasharray:5.0,5.0;" x1="363.5911" x2="363.5911" y1="118.5938" y2="1120.5781"/><line style="stroke:#181818;stroke-width:0.5;stroke-dasharray:5.0,5.0;" x1="687.3633" x2="687.3633" y1="118.5938" y2="1120.5781"/><line style="stroke:#181818;stroke-width:0.5;stroke-dasharray:5.0,5.0;" x1="878.2539" x2="878.2539" y1="118.5938" y2="1120.5781"/><text fill="#000000" font-family="sans-serif" font-size="14" lengthAdjust="spacing" textLength="31.9102" x="5" y="115.292">User</text><ellipse cx="23.9551" cy="50.7969" fill="#E2E2F0" rx="8" ry="8" style="stroke:#181818;stroke-width:0.5;"/><path d="M23.9551,58.7969 L23.9551,85.7969 M10.9551,66.7969 L36.9551,66.7969 M23.9551,85.7969 L10.9551,100.7969 M23.9551,85.7969 L36.9551,100.7969 " fill="none" style="stroke:#181818;stroke-width:0.5;"/><text fill="#000000" font-family="sans-serif" font-size="14" lengthAdjust="spacing" textLength="31.9102" x="5" y="1132.5732">User</text><ellipse cx="23.9551" cy="1144.375" fill="#E2E2F0" rx="8" ry="8" style="stroke:#181818;stroke-width:0.5;"/><path d="M23.9551,1152.375 L23.9551,1179.375 M10.9551,1160.375 L36.9551,1160.375 M23.9551,1179.375 L10.9551,1194.375 M23.9551,1179.375 L36.9551,1194.375 " fill="none" style="stroke:#181818;stroke-width:0.5;"/><rect fill="#E2E2F0" height="30.2969" rx="2.5" ry="2.5" style="stroke:#181818;stroke-width:0.5;" width="71.0391" x="158.5015" y="87.2969"/><text fill="#000000" font-family="sans-serif" font-size="14" lengthAdjust="spacing" textLength="57.0391" x="165.5015" y="107.292">Browser</text><rect fill="#E2E2F0" height="30.2969" rx="2.5" ry="2.5" style="stroke:#181818;stroke-width:0.5;" width="71.0391" x="158.5015" y="1119.5781"/><text fill="#000000" font-family="sans-serif" font-size="14" lengthAdjust="spacing" textLength="57.0391" x="165.5015" y="1139.5732">Browser</text><rect fill="#E2E2F0" height="30.2969" rx="2.5" ry="2.5" style="stroke:#181818;stroke-width:0.5;" width="121.666" x="303.5911" y="87.2969"/><text fill="#000000" font-family="sans-serif" font-size="14" lengthAdjust="spacing" textLength="107.666" x="310.5911" y="107.292">React Frontend</text><rect fill="#E2E2F0" height="30.2969" rx="2.5" ry="2.5" style="stroke:#181818;stroke-width:0.5;" width="121.666" x="303.5911" y="1119.5781"/><text fill="#000000" font-family="sans-serif" font-size="14" lengthAdjust="spacing" textLength="107.666" x="310.5911" y="1139.5732">React Frontend</text><rect fill="#E2E2F0" height="30.2969" rx="2.5" ry="2.5" style="stroke:#181818;stroke-width:0.5;" width="113.9346" x="631.3633" y="87.2969"/><text fill="#000000" font-family="sans-serif" font-size="14" lengthAdjust="spacing" textLength="99.9346" x="638.3633" y="107.292">Django Server</text><rect fill="#E2E2F0" height="30.2969" rx="2.5" ry="2.5" style="stroke:#181818;stroke-width:0.5;" width="113.9346" x="631.3633" y="1119.5781"/><text fill="#000000" font-family="sans-serif" font-size="14" lengthAdjust="spacing" textLength="99.9346" x="638.3633" y="1139.5732">Django Server</text><rect fill="#E2E2F0" height="30.2969" rx="2.5" ry="2.5" style="stroke:#181818;stroke-width:0.5;" width="161.7314" x="798.2539" y="87.2969"/><text fill="#000000" font-family="sans-serif" font-size="14" lengthAdjust="spacing" textLength="147.7314" x="805.2539" y="107.292">Celery Task Manager</text><rect fill="#E2E2F0" height="30.2969" rx="2.5" ry="2.5" style="stroke:#181818;stroke-width:0.5;" width="161.7314" x="798.2539" y="1119.5781"/><text fill="#000000" font-family="sans-serif" font-size="14" lengthAdjust="spacing" textLength="147.7314" x="805.2539" y="1139.5732">Celery Task Manager</text><rect fill="#FFFFFF" height="874.4531" style="stroke:#181818;stroke-width:1.0;" width="10" x="359.4241" y="237.125"/><rect fill="#FFFFFF" height="845.3203" style="stroke:#181818;stroke-width:1.0;" width="10" x="683.3306" y="266.2578"/><rect fill="#FFFFFF" height="71.2656" style="stroke:#181818;stroke-width:1.0;" width="10" x="874.1196" y="1002.1797"/><polygon fill="#181818" points="182.021,145.7266,192.021,149.7266,182.021,153.7266,186.021,149.7266" style="stroke:#181818;stroke-width:1.0;"/><line style="stroke:#181818;stroke-width:1.0;" x1="23.9551" x2="188.021" y1="149.7266" y2="149.7266"/><text fill="#000000" font-family="sans-serif" font-size="13" lengthAdjust="spacing" textLength="98.0332" x="30.9551" y="144.6606">Start recording</text><polygon fill="#181818" points="34.9551,174.8594,24.9551,178.8594,34.9551,182.8594,30.9551,178.8594" style="stroke:#181818;stroke-width:1.0;"/><line style="stroke:#181818;stroke-width:1.0;" x1="28.9551" x2="193.021" y1="178.8594" y2="178.8594"/><text fill="#000000" font-family="sans-serif" font-size="13" lengthAdjust="spacing" textLength="146.0659" x="40.9551" y="173.7935">Request access to mic</text><polygon fill="#181818" points="182.021,203.9922,192.021,207.9922,182.021,211.9922,186.021,207.9922" style="stroke:#181818;stroke-width:1.0;"/><line style="stroke:#181818;stroke-width:1.0;" x1="23.9551" x2="188.021" y1="207.9922" y2="207.9922"/><text fill="#000000" font-family="sans-serif" font-size="13" lengthAdjust="spacing" textLength="129.397" x="30.9551" y="202.9263">Grant access to mic</text><polygon fill="#181818" points="347.4241,233.125,357.4241,237.125,347.4241,241.125,351.4241,237.125" style="stroke:#181818;stroke-width:1.0;"/><line style="stroke:#181818;stroke-width:1.0;" x1="194.021" x2="353.4241" y1="237.125" y2="237.125"/><text fill="#000000" font-family="sans-serif" font-size="13" lengthAdjust="spacing" textLength="98.0332" x="201.021" y="232.0591">Start recording</text><polygon fill="#181818" points="671.3306,262.2578,681.3306,266.2578,671.3306,270.2578,675.3306,266.2578" style="stroke:#181818;stroke-width:1.0;"/><line style="stroke:#181818;stroke-width:1.0;" x1="369.4241" x2="677.3306" y1="266.2578" y2="266.2578"/><text fill="#000000" font-family="sans-serif" font-size="13" lengthAdjust="spacing" textLength="98.0332" x="376.4241" y="261.1919">Start recording</text><line style="stroke:#181818;stroke-width:1.0;" x1="693.3306" x2="735.3306" y1="295.3906" y2="295.3906"/><line style="stroke:#181818;stroke-width:1.0;" x1="735.3306" x2="735.3306" y1="295.3906" y2="308.3906"/><line style="stroke:#181818;stroke-width:1.0;" x1="694.3306" x2="735.3306" y1="308.3906" y2="308.3906"/><polygon fill="#181818" points="704.3306,304.3906,694.3306,308.3906,704.3306,312.3906,700.3306,308.3906" style="stroke:#181818;stroke-width:1.0;"/><text fill="#000000" font-family="sans-serif" font-size="13" lengthAdjust="spacing" textLength="139.6294" x="700.3306" y="290.3247">Prepare data transfer</text><polygon fill="#181818" points="380.4241,333.5234,370.4241,337.5234,380.4241,341.5234,376.4241,337.5234" style="stroke:#181818;stroke-width:1.0;"/><line style="stroke:#181818;stroke-width:1.0;" x1="374.4241" x2="682.3306" y1="337.5234" y2="337.5234"/><text fill="#000000" font-family="sans-serif" font-size="13" lengthAdjust="spacing" textLength="151.709" x="386.4241" y="332.4575">Ack. [RecID, SessionID]</text><line style="stroke:#181818;stroke-width:1.0;" x1="369.4241" x2="411.4241" y1="366.6563" y2="366.6563"/><line style="stroke:#181818;stroke-width:1.0;" x1="411.4241" x2="411.4241" y1="366.6563" y2="379.6563"/><line style="stroke:#181818;stroke-width:1.0;" x1="370.4241" x2="411.4241" y1="379.6563" y2="379.6563"/><polygon fill="#181818" points="380.4241,375.6563,370.4241,379.6563,380.4241,383.6563,376.4241,379.6563" style="stroke:#181818;stroke-width:1.0;"/><text fill="#000000" font-family="sans-serif" font-size="13" lengthAdjust="spacing" textLength="172.2817" x="376.4241" y="361.5903">Update UI state: recording</text><path d="M293.5911,394.6563 L370.2151,394.6563 L370.2151,401.7891 L360.2151,411.7891 L293.5911,411.7891 L293.5911,394.6563 " fill="#EEEEEE" style="stroke:#000000;stroke-width:1.5;"/><rect fill="none" height="217.9297" style="stroke:#000000;stroke-width:1.5;" width="552.1824" x="293.5911" y="394.6563"/><text fill="#000000" font-family="sans-serif" font-size="13" font-weight="bold" lengthAdjust="spacing" textLength="31.624" x="308.5911" y="407.7231">loop</text><polygon fill="#181818" points="671.3306,428.9219,681.3306,432.9219,671.3306,436.9219,675.3306,432.9219" style="stroke:#181818;stroke-width:1.0;"/><line style="stroke:#181818;stroke-width:1.0;" x1="369.4241" x2="677.3306" y1="432.9219" y2="432.9219"/><text fill="#000000" font-family="sans-serif" font-size="13" lengthAdjust="spacing" textLength="244.334" x="376.4241" y="427.856">Send chunk [RecID, SessionID, index]</text><line style="stroke:#181818;stroke-width:1.0;" x1="693.3306" x2="735.3306" y1="462.0547" y2="462.0547"/><line style="stroke:#181818;stroke-width:1.0;" x1="735.3306" x2="735.3306" y1="462.0547" y2="475.0547"/><line style="stroke:#181818;stroke-width:1.0;" x1="694.3306" x2="735.3306" y1="475.0547" y2="475.0547"/><polygon fill="#181818" points="704.3306,471.0547,694.3306,475.0547,704.3306,479.0547,700.3306,475.0547" style="stroke:#181818;stroke-width:1.0;"/><text fill="#000000" font-family="sans-serif" font-size="13" lengthAdjust="spacing" textLength="123.4429" x="700.3306" y="456.9888">Check chunk index</text><polygon fill="#181818" points="380.4241,500.1875,370.4241,504.1875,380.4241,508.1875,376.4241,504.1875" style="stroke:#181818;stroke-width:1.0;"/><line style="stroke:#181818;stroke-width:1.0;" x1="374.4241" x2="682.3306" y1="504.1875" y2="504.1875"/><text fill="#000000" font-family="sans-serif" font-size="13" lengthAdjust="spacing" textLength="190.2075" x="386.4241" y="499.1216">Acknowledge chunk received</text><line style="stroke:#181818;stroke-width:1.0;" x1="369.4241" x2="411.4241" y1="533.3203" y2="533.3203"/><line style="stroke:#181818;stroke-width:1.0;" x1="411.4241" x2="411.4241" y1="533.3203" y2="546.3203"/><line style="stroke:#181818;stroke-width:1.0;" x1="370.4241" x2="411.4241" y1="546.3203" y2="546.3203"/><polygon fill="#181818" points="380.4241,542.3203,370.4241,546.3203,380.4241,550.3203,376.4241,546.3203" style="stroke:#181818;stroke-width:1.0;"/><text fill="#000000" font-family="sans-serif" font-size="13" lengthAdjust="spacing" textLength="171.812" x="376.4241" y="528.2544">Delete chunk data on Ack.</text><polygon fill="#181818" points="380.4241,571.4531,370.4241,575.4531,380.4241,579.4531,376.4241,575.4531" style="stroke:#181818;stroke-width:1.0;"/><line style="stroke:#181818;stroke-width:1.0;stroke-dasharray:2.0,2.0;" x1="374.4241" x2="682.3306" y1="575.4531" y2="575.4531"/><text fill="#000000" font-family="sans-serif" font-size="13" lengthAdjust="spacing" textLength="243.5024" x="386.4241" y="570.3872">Request missing chunk (if necessary)</text><polygon fill="#181818" points="671.3306,600.5859,681.3306,604.5859,671.3306,608.5859,675.3306,604.5859" style="stroke:#181818;stroke-width:1.0;"/><line style="stroke:#181818;stroke-width:1.0;stroke-dasharray:2.0,2.0;" x1="369.4241" x2="677.3306" y1="604.5859" y2="604.5859"/><text fill="#000000" font-family="sans-serif" font-size="13" lengthAdjust="spacing" textLength="243.0962" x="376.4241" y="599.52">Re-send missing chunk (if necessary)</text><polygon fill="#181818" points="182.021,636.7188,192.021,640.7188,182.021,644.7188,186.021,640.7188" style="stroke:#181818;stroke-width:1.0;"/><line style="stroke:#181818;stroke-width:1.0;" x1="23.9551" x2="188.021" y1="640.7188" y2="640.7188"/><text fill="#000000" font-family="sans-serif" font-size="13" lengthAdjust="spacing" textLength="95.8306" x="30.9551" y="635.6528">Stop recording</text><polygon fill="#181818" points="347.4241,665.8516,357.4241,669.8516,347.4241,673.8516,351.4241,669.8516" style="stroke:#181818;stroke-width:1.0;"/><line style="stroke:#181818;stroke-width:1.0;" x1="194.021" x2="353.4241" y1="669.8516" y2="669.8516"/><text fill="#000000" font-family="sans-serif" font-size="13" lengthAdjust="spacing" textLength="95.8306" x="201.021" y="664.7856">Stop recording</text><polygon fill="#181818" points="671.3306,694.9844,681.3306,698.9844,671.3306,702.9844,675.3306,698.9844" style="stroke:#181818;stroke-width:1.0;"/><line style="stroke:#181818;stroke-width:1.0;" x1="369.4241" x2="677.3306" y1="698.9844" y2="698.9844"/><text fill="#000000" font-family="sans-serif" font-size="13" lengthAdjust="spacing" textLength="95.8306" x="376.4241" y="693.9185">Stop recording</text><polygon fill="#181818" points="380.4241,724.1172,370.4241,728.1172,380.4241,732.1172,376.4241,728.1172" style="stroke:#181818;stroke-width:1.0;"/><line style="stroke:#181818;stroke-width:1.0;" x1="374.4241" x2="682.3306" y1="728.1172" y2="728.1172"/><text fill="#000000" font-family="sans-serif" font-size="13" lengthAdjust="spacing" textLength="126.1851" x="386.4241" y="723.0513">Ack. stop recording</text><line style="stroke:#181818;stroke-width:1.0;" x1="369.4241" x2="411.4241" y1="757.25" y2="757.25"/><line style="stroke:#181818;stroke-width:1.0;" x1="411.4241" x2="411.4241" y1="757.25" y2="770.25"/><line style="stroke:#181818;stroke-width:1.0;" x1="370.4241" x2="411.4241" y1="770.25" y2="770.25"/><polygon fill="#181818" points="380.4241,766.25,370.4241,770.25,380.4241,774.25,376.4241,770.25" style="stroke:#181818;stroke-width:1.0;"/><text fill="#000000" font-family="sans-serif" font-size="13" lengthAdjust="spacing" textLength="201.7729" x="376.4241" y="752.1841">Update UI state: Verifying data</text><path d="M293.5911,785.25 L370.2151,785.25 L370.2151,792.3828 L360.2151,802.3828 L293.5911,802.3828 L293.5911,785.25 " fill="#EEEEEE" style="stroke:#000000;stroke-width:1.5;"/><rect fill="none" height="117.5313" style="stroke:#000000;stroke-width:1.5;" width="578.2585" x="293.5911" y="785.25"/><text fill="#000000" font-family="sans-serif" font-size="13" font-weight="bold" lengthAdjust="spacing" textLength="31.624" x="308.5911" y="798.3169">loop</text><line style="stroke:#181818;stroke-width:1.0;" x1="693.3306" x2="735.3306" y1="823.5156" y2="823.5156"/><line style="stroke:#181818;stroke-width:1.0;" x1="735.3306" x2="735.3306" y1="823.5156" y2="836.5156"/><line style="stroke:#181818;stroke-width:1.0;" x1="694.3306" x2="735.3306" y1="836.5156" y2="836.5156"/><polygon fill="#181818" points="704.3306,832.5156,694.3306,836.5156,704.3306,840.5156,700.3306,836.5156" style="stroke:#181818;stroke-width:1.0;"/><text fill="#000000" font-family="sans-serif" font-size="13" lengthAdjust="spacing" textLength="149.519" x="700.3306" y="818.4497">Check chunk inventory</text><polygon fill="#181818" points="380.4241,861.6484,370.4241,865.6484,380.4241,869.6484,376.4241,865.6484" style="stroke:#181818;stroke-width:1.0;"/><line style="stroke:#181818;stroke-width:1.0;stroke-dasharray:2.0,2.0;" x1="374.4241" x2="682.3306" y1="865.6484" y2="865.6484"/><text fill="#000000" font-family="sans-serif" font-size="13" lengthAdjust="spacing" textLength="243.5024" x="386.4241" y="860.5825">Request missing chunk (if necessary)</text><polygon fill="#181818" points="671.3306,890.7813,681.3306,894.7813,671.3306,898.7813,675.3306,894.7813" style="stroke:#181818;stroke-width:1.0;"/><line style="stroke:#181818;stroke-width:1.0;stroke-dasharray:2.0,2.0;" x1="369.4241" x2="677.3306" y1="894.7813" y2="894.7813"/><text fill="#000000" font-family="sans-serif" font-size="13" lengthAdjust="spacing" textLength="243.0962" x="376.4241" y="889.7153">Re-send missing chunk (if necessary)</text><polygon fill="#181818" points="380.4241,926.9141,370.4241,930.9141,380.4241,934.9141,376.4241,930.9141" style="stroke:#181818;stroke-width:1.0;"/><line style="stroke:#181818;stroke-width:1.0;" x1="374.4241" x2="682.3306" y1="930.9141" y2="930.9141"/><text fill="#000000" font-family="sans-serif" font-size="13" lengthAdjust="spacing" textLength="118.1489" x="386.4241" y="925.8481">Data size and ETA</text><line style="stroke:#181818;stroke-width:1.0;" x1="369.4241" x2="411.4241" y1="960.0469" y2="960.0469"/><line style="stroke:#181818;stroke-width:1.0;" x1="411.4241" x2="411.4241" y1="960.0469" y2="973.0469"/><line style="stroke:#181818;stroke-width:1.0;" x1="370.4241" x2="411.4241" y1="973.0469" y2="973.0469"/><polygon fill="#181818" points="380.4241,969.0469,370.4241,973.0469,380.4241,977.0469,376.4241,973.0469" style="stroke:#181818;stroke-width:1.0;"/><text fill="#000000" font-family="sans-serif" font-size="13" lengthAdjust="spacing" textLength="194.5938" x="376.4241" y="954.981">Update UI state: Size and ETA</text><polygon fill="#181818" points="862.1196,998.1797,872.1196,1002.1797,862.1196,1006.1797,866.1196,1002.1797" style="stroke:#181818;stroke-width:1.0;"/><line style="stroke:#181818;stroke-width:1.0;" x1="693.3306" x2="868.1196" y1="1002.1797" y2="1002.1797"/><text fill="#000000" font-family="sans-serif" font-size="13" lengthAdjust="spacing" textLength="161.7891" x="700.3306" y="997.1138">Create transcription task</text><line style="stroke:#181818;stroke-width:1.0;" x1="884.1196" x2="926.1196" y1="1031.3125" y2="1031.3125"/><line style="stroke:#181818;stroke-width:1.0;" x1="926.1196" x2="926.1196" y1="1031.3125" y2="1044.3125"/><line style="stroke:#181818;stroke-width:1.0;" x1="885.1196" x2="926.1196" y1="1044.3125" y2="1044.3125"/><polygon fill="#181818" points="895.1196,1040.3125,885.1196,1044.3125,895.1196,1048.3125,891.1196,1044.3125" style="stroke:#181818;stroke-width:1.0;"/><text fill="#000000" font-family="sans-serif" font-size="13" lengthAdjust="spacing" textLength="68.6182" x="891.1196" y="1026.2466">Transcribe</text><polygon fill="#181818" points="704.3306,1069.4453,694.3306,1073.4453,704.3306,1077.4453,700.3306,1073.4453" style="stroke:#181818;stroke-width:1.0;"/><line style="stroke:#181818;stroke-width:1.0;" x1="698.3306" x2="878.1196" y1="1073.4453" y2="1073.4453"/><text fill="#000000" font-family="sans-serif" font-size="13" lengthAdjust="spacing" textLength="75.8608" x="710.3306" y="1068.3794">Output files</text><polygon fill="#181818" points="380.4241,1098.5781,370.4241,1102.5781,380.4241,1106.5781,376.4241,1102.5781" style="stroke:#181818;stroke-width:1.0;"/><line style="stroke:#181818;stroke-width:1.0;" x1="374.4241" x2="682.3306" y1="1102.5781" y2="1102.5781"/><text fill="#000000" font-family="sans-serif" font-size="13" lengthAdjust="spacing" textLength="102.9844" x="386.4241" y="1097.5122">Output file links</text><rect fill="#DDDDDD" height="205.5625" id="_legend" rx="7.5" ry="7.5" style="stroke:#000000;stroke-width:1.0;" width="329.0127" x="325.8625" y="1212.875"/><text fill="#000000" font-family="sans-serif" font-size="14" lengthAdjust="spacing" textLength="319.0127" x="330.8625" y="1230.8701">Django Server Implementation requirements:</text><text fill="#000000" font-family="sans-serif" font-size="14" lengthAdjust="spacing" textLength="4.4502" x="330.8625" y="1247.167">&#160;</text><text fill="#000000" font-family="sans-serif" font-size="14" lengthAdjust="spacing" textLength="205.1123" x="330.8625" y="1263.4639">Recording data management</text><text fill="#000000" font-family="sans-serif" font-size="14" lengthAdjust="spacing" textLength="147.3691" x="335.3127" y="1279.7607">- handle data chunks</text><text fill="#000000" font-family="sans-serif" font-size="14" lengthAdjust="spacing" textLength="175.4102" x="335.3127" y="1296.0576">- request missing chunks</text><text fill="#000000" font-family="sans-serif" font-size="14" lengthAdjust="spacing" textLength="145.3252" x="335.3127" y="1312.3545">- assemble audio file</text><text fill="#000000" font-family="sans-serif" font-size="14" lengthAdjust="spacing" textLength="4.4502" x="330.8625" y="1328.6514">&#160;</text><text fill="#000000" font-family="sans-serif" font-size="14" lengthAdjust="spacing" textLength="74.8672" x="330.8625" y="1344.9482">Monitoring</text><text fill="#000000" font-family="sans-serif" font-size="14" lengthAdjust="spacing" textLength="189.1299" x="335.3127" y="1361.2451">- detect broken connection</text><text fill="#000000" font-family="sans-serif" font-size="14" lengthAdjust="spacing" textLength="4.4502" x="330.8625" y="1377.542">&#160;</text><text fill="#000000" font-family="sans-serif" font-size="14" lengthAdjust="spacing" textLength="146.6992" x="330.8625" y="1393.8389">Transcription service</text><text fill="#000000" font-family="sans-serif" font-size="14" lengthAdjust="spacing" textLength="4.4502" x="330.8625" y="1410.1357">&#160;</text><!--SRC=[dLJ1Rjim3BthAuZkiW7DFY270OtT505MRB3hxJ3qeCXCejcMF4bEcttzIDb9x3OhiFbaY8_autiIWmurGgfLaEtE6eGCbNMbDbkGfeG79urNJhT1MoEa2jP1uT61z528LhgWbMwb2N2rSFQ98bSSMcHYRP_XwZkkuQPjGHieajfs9IXhWjI6SUy-w-qkBEeEfuKof3wmT8H4KyPwsLBGBr3DlcwEgdC8dkZ8BOxA9o_Btpb4CwsV_fHcQo57jn_eflaKaM2DxW0FqbTmBmsrw779YOKG1Sm-qPnpo0EbWZlA9XOPHuevAVchGnz0AeNUGx3GQ7NEktFSQnhiSxFbwweaYTxBW2n5jcHKch-1eedI_8Zwwf36GoXba13OqGsw8SwzRbJr4NwGyQlqccJndhnUfOz37qOKRSbLYnL9JZ_pKSlQsbO0VIDMh9BQTQPwNVMQp2hn-J6cd2acErJLa1C1e_X0qTYd6ajokqSH0zHxB4Uz6PYITU68YGDR4mSy5Ho0HtSQJSpejlSPx_K63B8bqXq-d6eFB3ESUPxjpHm2Z2-7RL_TZTxVIM1iwIJmmYL_AUsYGz_GwSs1MR8AlKr_qtkFXbxIGVohFFyZpNcWbDtn-ZV6JNFxSFFMEFaOrzT8Q0o730lZBGM1dktv9IGY6S37NRR6_eXfV-b2smNOw1gzA76KTUOvma2jJUM5g77RRu8GR2Cc2mLMJLjZGuhAoCQHaDh50pyNuhnUu-LiudRXe80Px6Z0UdYdKK3Ff-wI5J4YlSTcJHcoAxMD38MujqQJctmz25BIQw1jkdQsGiFRb-o8krnCLZlGvjvhHUd857YwFm00]--></g></svg>